<svg xmlns="http://www.w3.org/2000/svg" xmlns:xlink="http://www.w3.org/1999/xlink" xmlns:lucid="lucid" width="680" height="679"><g transform="translate(-60 -40)" lucid:page-tab-id="IVoo5btb9Dru"><path d="M320 60h160v60H320z" stroke="#000" stroke-width="2" fill="#fff"/><use xlink:href="#a" transform="matrix(1,0,0,1,325,65) translate(42.55 28.6)"/><path d="M560 219h160v60H560z" stroke="#000" stroke-width="2" fill="#fff"/><use xlink:href="#b" transform="matrix(1,0,0,1,565,224) translate(29.549999999999997 28.6)"/><path d="M80 219h160v60H80z" stroke="#000" stroke-width="2" fill="#fff"/><use xlink:href="#c" transform="matrix(1,0,0,1,85,224) translate(52.025 28.6)"/><path d="M80 477h160v60H80z" stroke="#000" stroke-width="2" fill="#fff"/><use xlink:href="#d" transform="matrix(1,0,0,1,85,482) translate(11.124999999999993 28.6)"/><use xlink:href="#e" transform="matrix(1,0,0,1,85,482) translate(72.025 28.6)"/><path d="M560 477h160v60H560z" stroke="#000" stroke-width="2" fill="#fff"/><use xlink:href="#f" transform="matrix(1,0,0,1,565,482) translate(57.55 28.6)"/><path d="M320 639h160v60H320z" stroke="#000" stroke-width="2" fill="#fff"/><use xlink:href="#g" transform="matrix(1,0,0,1,325,644) translate(51.55 28.6)"/><path d="M174.2 206.56l130.6-105.12" stroke="#7ab648" stroke-width="2" fill="none"/><path d="M176.54 210.64l-14.02 5.33 8.2-12.56z" fill="#7ab648"/><path d="M178.18 211.08L160 218l10.64-16.3zm-13.14 2.86l9.86-3.75-4.1-5.1zM308.27 104.6l-5.8-7.24 14-5.33z" fill="#7ab648"/><path d="M308.36 106.3l-7.54-9.38L319 90zm-4.26-8.5l4.1 5.1 5.76-8.84z" fill="#7ab648"/><path d="M625.8 206.56L495.2 101.44" stroke="#7ab648" stroke-width="2" fill="none"/><path d="M637.48 215.97l-14.02-5.33 5.8-7.23z" fill="#7ab648"/><path d="M640 218l-18.18-6.92 7.54-9.37zm-14.9-7.8l9.86 3.74-5.77-8.83zM497.54 97.36l-5.8 7.23-8.22-12.57z" fill="#7ab648"/><path d="M499.18 96.92l-7.54 9.37L481 90zm-7.37 5.97l4.1-5.1-9.86-3.74z" fill="#7ab648"/><path d="M640 298.24v159.52" stroke="#7ab648" stroke-width="2" fill="none"/><path d="M644.64 297.5h-9.28l4.64-14.26z" fill="#7ab648"/><path d="M646 298.5h-12l6-18.5zm-9.26-2h6.52L640 286.47zM640 472.76l-4.64-14.26h9.28z" fill="#7ab648"/><path d="M640 476l-6-18.5h12zm-3.26-16.5l3.26 10.03 3.26-10.03z" fill="#7ab648"/><path d="M625.93 549.6L495.07 657.4" stroke="#7ab648" stroke-width="2" fill="none"/><path d="M629.44 552.7l-5.9-7.15 13.96-5.5z" fill="#7ab648"/><path d="M629.54 554.4l-7.64-9.27L640 538zm-4.35-8.42l4.14 5.03 5.66-8.88zM497.46 661.45l-13.96 5.5 8.06-12.66z" fill="#7ab648"/><path d="M499.1 661.87L481 669l10.46-16.4zm-13.1 3l9.8-3.85-4.14-5.03z" fill="#7ab648"/><path d="M304.93 657.4L174.07 549.6" stroke="#7ab648" stroke-width="2" fill="none"/><path d="M316.5 666.94l-13.96-5.5 5.9-7.15z" fill="#7ab648"/><path d="M319 669l-18.1-7.13 7.64-9.27zm-14.8-7.98l9.8 3.86-5.66-8.9zM176.46 545.55l-5.9 7.16-8.06-12.64z" fill="#7ab648"/><path d="M178.1 545.13l-7.64 9.27L160 538zm-7.44 5.88l4.15-5.02-9.8-3.86z" fill="#7ab648"/><path d="M160 298.24v159.52" stroke="#7ab648" stroke-width="2" fill="none"/><path d="M164.64 297.5h-9.28l4.64-14.26z" fill="#7ab648"/><path d="M166 298.5h-12l6-18.5zm-9.26-2h6.52L160 286.47zM160 472.76l-4.64-14.26h9.28z" fill="#7ab648"/><path d="M160 476l-6-18.5h12zm-3.26-16.5l3.26 10.03 3.26-10.03z" fill="#7ab648"/><path d="M393.05 137.86l-145.1 352.28" stroke="#7ab648" stroke-width="2" fill="none"/><path d="M397.62 138.95l-8.57-3.53 9.72-11.43z" fill="#7ab648"/><path d="M398.5 140.4l-11.1-4.58L400 121zm-7.8-5.38l6.03 2.48.8-10.52zM251.95 492.58L242.23 504l1.15-14.95z" fill="#7ab648"/><path d="M253.6 492.18L241 507l1.5-19.4zm-10.13 8.84l6.83-8.04-6.03-2.48z" fill="#7ab648"/><path d="M406.95 137.86l145.1 352.28" stroke="#7ab648" stroke-width="2" fill="none"/><path d="M410.95 135.42l-8.57 3.53-1.15-14.96z" fill="#7ab648"/><path d="M412.6 135.82l-11.1 4.58L400 121zm-9.33 1.68l6.03-2.48-6.83-8.04zM557.77 504l-9.72-11.42 8.57-3.53z" fill="#7ab648"/><path d="M559 507l-12.6-14.82 11.1-4.58zm-9.3-14.02l6.83 8.04-.8-10.52z" fill="#7ab648"/><path d="M540.76 507H259.24" stroke="#7ab648" stroke-width="2" fill="none"/><path d="M555.76 507l-14.26 4.64v-9.28z" fill="#7ab648"/><path d="M559 507l-18.5 6v-12zm-16.5 3.26l10.03-3.26-10.03-3.26zM258.5 511.64L244.24 507l14.26-4.64z" fill="#7ab648"/><path d="M259.5 513l-18.5-6 18.5-6zm-12.03-6l10.03 3.26v-6.52z" fill="#7ab648"/><defs><path d="M30-248c87 1 191-15 191 75 0 78-77 80-158 76V0H30v-248zm33 125c57 0 124 11 124-50 0-59-68-47-124-48v98" id="h"/><path d="M114-163C36-179 61-72 57 0H25l-1-190h30c1 12-1 29 2 39 6-27 23-49 58-41v29" id="i"/><path d="M100-194c62-1 85 37 85 99 1 63-27 99-86 99S16-35 15-95c0-66 28-99 85-99zM99-20c44 1 53-31 53-75 0-43-8-75-51-75s-53 32-53 75 10 74 51 75" id="j"/><path d="M24-231v-30h32v30H24zM-9 49c24 4 33-6 33-30v-209h32V24c2 40-23 58-65 49V49" id="k"/><path d="M100-194c63 0 86 42 84 106H49c0 40 14 67 53 68 26 1 43-12 49-29l28 8c-11 28-37 45-77 45C44 4 14-33 15-96c1-61 26-98 85-98zm52 81c6-60-76-77-97-28-3 7-6 17-6 28h103" id="l"/><path d="M96-169c-40 0-48 33-48 73s9 75 48 75c24 0 41-14 43-38l32 2c-6 37-31 61-74 61-59 0-76-41-82-99-10-93 101-131 147-64 4 7 5 14 7 22l-32 3c-4-21-16-35-41-35" id="m"/><path d="M59-47c-2 24 18 29 38 22v24C64 9 27 4 27-40v-127H5v-23h24l9-43h21v43h35v23H59v120" id="n"/><path d="M135-143c-3-34-86-38-87 0 15 53 115 12 119 90S17 21 10-45l28-5c4 36 97 45 98 0-10-56-113-15-118-90-4-57 82-63 122-42 12 7 21 19 24 35" id="o"/><g id="a"><use transform="matrix(0.05,0,0,0.05,0,0)" xlink:href="#h"/><use transform="matrix(0.05,0,0,0.05,12,0)" xlink:href="#i"/><use transform="matrix(0.05,0,0,0.05,17.95,0)" xlink:href="#j"/><use transform="matrix(0.05,0,0,0.05,27.950000000000003,0)" xlink:href="#k"/><use transform="matrix(0.05,0,0,0.05,31.899999999999995,0)" xlink:href="#l"/><use transform="matrix(0.05,0,0,0.05,41.9,0)" xlink:href="#m"/><use transform="matrix(0.05,0,0,0.05,50.9,0)" xlink:href="#n"/><use transform="matrix(0.05,0,0,0.05,55.900000000000006,0)" xlink:href="#o"/></g><path d="M30-248c118-7 216 8 213 122C240-48 200 0 122 0H30v-248zM63-27c89 8 146-16 146-99s-60-101-146-95v194" id="p"/><path d="M84 4C-5 8 30-112 23-190h32v120c0 31 7 50 39 49 72-2 45-101 50-169h31l1 190h-30c-1-10 1-25-2-33-11 22-28 36-60 37" id="q"/><path d="M210-169c-67 3-38 105-44 169h-31v-121c0-29-5-50-35-48C34-165 62-65 56 0H25l-1-190h30c1 10-1 24 2 32 10-44 99-50 107 0 11-21 27-35 58-36 85-2 47 119 55 194h-31v-121c0-29-5-49-35-48" id="r"/><path d="M117-194c89-4 53 116 60 194h-32v-121c0-31-8-49-39-48C34-167 62-67 57 0H25l-1-190h30c1 10-1 24 2 32 11-22 29-35 61-36" id="s"/><g id="b"><use transform="matrix(0.05,0,0,0.05,0,0)" xlink:href="#p"/><use transform="matrix(0.05,0,0,0.05,12.950000000000001,0)" xlink:href="#j"/><use transform="matrix(0.05,0,0,0.05,22.950000000000003,0)" xlink:href="#m"/><use transform="matrix(0.05,0,0,0.05,31.950000000000003,0)" xlink:href="#q"/><use transform="matrix(0.05,0,0,0.05,41.95,0)" xlink:href="#r"/><use transform="matrix(0.05,0,0,0.05,56.900000000000006,0)" xlink:href="#l"/><use transform="matrix(0.05,0,0,0.05,66.9,0)" xlink:href="#s"/><use transform="matrix(0.05,0,0,0.05,76.9,0)" xlink:href="#n"/><use transform="matrix(0.05,0,0,0.05,81.9,0)" xlink:href="#o"/></g><path d="M127-220V0H93v-220H8v-28h204v28h-85" id="t"/><path d="M141-36C126-15 110 5 73 4 37 3 15-17 15-53c-1-64 63-63 125-63 3-35-9-54-41-54-24 1-41 7-42 31l-33-3c5-37 33-52 76-52 45 0 72 20 72 64v82c-1 20 7 32 28 27v20c-31 9-61-2-59-35zM48-53c0 20 12 33 32 33 41-3 63-29 60-74-43 2-92-5-92 41" id="u"/><path d="M143 0L79-87 56-68V0H24v-261h32v163l83-92h37l-77 82L181 0h-38" id="v"/><g id="c"><use transform="matrix(0.05,0,0,0.05,0,0)" xlink:href="#t"/><use transform="matrix(0.05,0,0,0.05,8.950000000000001,0)" xlink:href="#u"/><use transform="matrix(0.05,0,0,0.05,18.950000000000003,0)" xlink:href="#o"/><use transform="matrix(0.05,0,0,0.05,27.950000000000003,0)" xlink:href="#v"/><use transform="matrix(0.05,0,0,0.05,36.95,0)" xlink:href="#o"/></g><path d="M24-231v-30h32v30H24zM24 0v-190h32V0H24" id="w"/><path d="M177-190C167-65 218 103 67 71c-23-6-38-20-44-43l32-5c15 47 100 32 89-28v-30C133-14 115 1 83 1 29 1 15-40 15-95c0-56 16-97 71-98 29-1 48 16 59 35 1-10 0-23 2-32h30zM94-22c36 0 50-32 50-73 0-42-14-75-50-75-39 0-46 34-46 75s6 73 46 73" id="x"/><g id="d"><use transform="matrix(0.05,0,0,0.05,0,0)" xlink:href="#p"/><use transform="matrix(0.05,0,0,0.05,12.950000000000001,0)" xlink:href="#l"/><use transform="matrix(0.05,0,0,0.05,22.950000000000003,0)" xlink:href="#o"/><use transform="matrix(0.05,0,0,0.05,31.950000000000003,0)" xlink:href="#w"/><use transform="matrix(0.05,0,0,0.05,35.900000000000006,0)" xlink:href="#x"/><use transform="matrix(0.05,0,0,0.05,45.900000000000006,0)" xlink:href="#s"/></g><path d="M212-179c-10-28-35-45-73-45-59 0-87 40-87 99 0 60 29 101 89 101 43 0 62-24 78-52l27 14C228-24 195 4 139 4 59 4 22-46 18-125c-6-104 99-153 187-111 19 9 31 26 39 46" id="y"/><path d="M24 0v-261h32V0H24" id="z"/><g id="e"><use transform="matrix(0.05,0,0,0.05,0,0)" xlink:href="#y"/><use transform="matrix(0.05,0,0,0.05,12.950000000000001,0)" xlink:href="#j"/><use transform="matrix(0.05,0,0,0.05,22.950000000000003,0)" xlink:href="#s"/><use transform="matrix(0.05,0,0,0.05,32.95,0)" xlink:href="#n"/><use transform="matrix(0.05,0,0,0.05,37.95,0)" xlink:href="#i"/><use transform="matrix(0.05,0,0,0.05,43.900000000000006,0)" xlink:href="#j"/><use transform="matrix(0.05,0,0,0.05,53.900000000000006,0)" xlink:href="#z"/><use transform="matrix(0.05,0,0,0.05,57.85,0)" xlink:href="#o"/></g><path d="M233-177c-1 41-23 64-60 70L243 0h-38l-65-103H63V0H30v-248c88 3 205-21 203 71zM63-129c60-2 137 13 137-47 0-61-80-42-137-45v92" id="A"/><g id="f"><use transform="matrix(0.05,0,0,0.05,0,0)" xlink:href="#A"/><use transform="matrix(0.05,0,0,0.05,12.950000000000001,0)" xlink:href="#w"/><use transform="matrix(0.05,0,0,0.05,16.900000000000002,0)" xlink:href="#o"/><use transform="matrix(0.05,0,0,0.05,25.900000000000002,0)" xlink:href="#v"/></g><path d="M232-93c-1 65-40 97-104 97C67 4 28-28 28-90v-158h33c8 89-33 224 67 224 102 0 64-133 71-224h33v155" id="B"/><g id="g"><use transform="matrix(0.05,0,0,0.05,0,0)" xlink:href="#B"/><use transform="matrix(0.05,0,0,0.05,12.950000000000001,0)" xlink:href="#o"/><use transform="matrix(0.05,0,0,0.05,21.950000000000003,0)" xlink:href="#l"/><use transform="matrix(0.05,0,0,0.05,31.950000000000003,0)" xlink:href="#i"/><use transform="matrix(0.05,0,0,0.05,37.900000000000006,0)" xlink:href="#o"/></g></defs></g></svg>