<svg xmlns="http://www.w3.org/2000/svg" xmlns:xlink="http://www.w3.org/1999/xlink" xmlns:lucid="lucid" width="500" height="120"><g transform="translate(-40 -200)" lucid:page-tab-id="Troo1ALC181N"><path d="M60 220h180v80H60z" stroke="#000" stroke-width="2" fill="#fff"/><use xlink:href="#a" transform="matrix(1,0,0,1,60,220) translate(17.62999999999999 44.4)"/><use xlink:href="#b" transform="matrix(1,0,0,1,60,220) translate(91.53 44.4)"/><path d="M340 220h180v80H340z" stroke="#000" stroke-width="2" fill="#fff"/><use xlink:href="#c" transform="matrix(1,0,0,1,340,220) translate(23.054999999999986 44.4)"/><use xlink:href="#d" transform="matrix(1,0,0,1,340,220) translate(101.005 44.4)"/><path d="M241 260h79.76" stroke="#7ab648" stroke-width="2" fill="none"/><path d="M241 261h-1v-2h1zM335.76 260l-14.26 4.64v-9.28z" fill="#7ab648"/><path d="M339 260l-18.5 6v-12zm-16.5 3.26l10.03-3.26-10.03-3.26z" fill="#7ab648"/><defs><path d="M240 0l2-218c-23 76-54 145-80 218h-23L58-218 59 0H30v-248h44l77 211c21-75 51-140 76-211h43V0h-30" id="e"/><path d="M84 4C-5 8 30-112 23-190h32v120c0 31 7 50 39 49 72-2 45-101 50-169h31l1 190h-30c-1-10 1-25-2-33-11 22-28 36-60 37" id="f"/><path d="M59-47c-2 24 18 29 38 22v24C64 9 27 4 27-40v-127H5v-23h24l9-43h21v43h35v23H59v120" id="g"/><path d="M141-36C126-15 110 5 73 4 37 3 15-17 15-53c-1-64 63-63 125-63 3-35-9-54-41-54-24 1-41 7-42 31l-33-3c5-37 33-52 76-52 45 0 72 20 72 64v82c-1 20 7 32 28 27v20c-31 9-61-2-59-35zM48-53c0 20 12 33 32 33 41-3 63-29 60-74-43 2-92-5-92 41" id="h"/><path d="M24-231v-30h32v30H24zM24 0v-190h32V0H24" id="i"/><path d="M100-194c62-1 85 37 85 99 1 63-27 99-86 99S16-35 15-95c0-66 28-99 85-99zM99-20c44 1 53-31 53-75 0-43-8-75-51-75s-53 32-53 75 10 74 51 75" id="j"/><path d="M117-194c89-4 53 116 60 194h-32v-121c0-31-8-49-39-48C34-167 62-67 57 0H25l-1-190h30c1 10-1 24 2 32 11-22 29-35 61-36" id="k"/><g id="a"><use transform="matrix(0.05,0,0,0.05,0,0)" xlink:href="#e"/><use transform="matrix(0.05,0,0,0.05,14.950000000000001,0)" xlink:href="#f"/><use transform="matrix(0.05,0,0,0.05,24.950000000000003,0)" xlink:href="#g"/><use transform="matrix(0.05,0,0,0.05,29.950000000000003,0)" xlink:href="#h"/><use transform="matrix(0.05,0,0,0.05,39.95,0)" xlink:href="#g"/><use transform="matrix(0.05,0,0,0.05,44.95,0)" xlink:href="#i"/><use transform="matrix(0.05,0,0,0.05,48.900000000000006,0)" xlink:href="#j"/><use transform="matrix(0.05,0,0,0.05,58.900000000000006,0)" xlink:href="#k"/><path d="M-.9 1.25h75.7v1.32H-.9z"/></g><path d="M233-177c-1 41-23 64-60 70L243 0h-38l-65-103H63V0H30v-248c88 3 205-21 203 71zM63-129c60-2 137 13 137-47 0-61-80-42-137-45v92" id="l"/><path d="M100-194c63 0 86 42 84 106H49c0 40 14 67 53 68 26 1 43-12 49-29l28 8c-11 28-37 45-77 45C44 4 14-33 15-96c1-61 26-98 85-98zm52 81c6-60-76-77-97-28-3 7-6 17-6 28h103" id="m"/><path d="M135-143c-3-34-86-38-87 0 15 53 115 12 119 90S17 21 10-45l28-5c4 36 97 45 98 0-10-56-113-15-118-90-4-57 82-63 122-42 12 7 21 19 24 35" id="n"/><path d="M24 0v-261h32V0H24" id="o"/><path d="M108 0H70L1-190h34L89-25l56-165h34" id="p"/><path d="M114-163C36-179 61-72 57 0H25l-1-190h30c1 12-1 29 2 39 6-27 23-49 58-41v29" id="q"/><g id="b"><use transform="matrix(0.05,0,0,0.05,0,0)" xlink:href="#l"/><use transform="matrix(0.05,0,0,0.05,12.950000000000001,0)" xlink:href="#m"/><use transform="matrix(0.05,0,0,0.05,22.950000000000003,0)" xlink:href="#n"/><use transform="matrix(0.05,0,0,0.05,31.950000000000003,0)" xlink:href="#j"/><use transform="matrix(0.05,0,0,0.05,41.95,0)" xlink:href="#o"/><use transform="matrix(0.05,0,0,0.05,45.900000000000006,0)" xlink:href="#p"/><use transform="matrix(0.05,0,0,0.05,54.900000000000006,0)" xlink:href="#m"/><use transform="matrix(0.05,0,0,0.05,64.9,0)" xlink:href="#q"/><path d="M-.9 1.25h72.65v1.32H-.9z"/></g><path d="M160-131c35 5 61 23 61 61C221 17 115-2 30 0v-248c76 3 177-17 177 60 0 33-19 50-47 57zm-97-11c50-1 110 9 110-42 0-47-63-36-110-37v79zm0 115c55-2 124 14 124-45 0-56-70-42-124-44v89" id="r"/><g id="c"><use transform="matrix(0.05,0,0,0.05,0,0)" xlink:href="#r"/><use transform="matrix(0.05,0,0,0.05,12,0)" xlink:href="#f"/><use transform="matrix(0.05,0,0,0.05,22,0)" xlink:href="#n"/><use transform="matrix(0.05,0,0,0.05,31,0)" xlink:href="#i"/><use transform="matrix(0.05,0,0,0.05,34.95,0)" xlink:href="#k"/><use transform="matrix(0.05,0,0,0.05,44.95,0)" xlink:href="#m"/><use transform="matrix(0.05,0,0,0.05,54.95,0)" xlink:href="#n"/><use transform="matrix(0.05,0,0,0.05,63.95,0)" xlink:href="#n"/><path d="M-.9 1.25h79.75v1.32H-.9z"/></g><path d="M30 0v-248h187v28H63v79h144v27H63v87h162V0H30" id="s"/><path d="M177-190C167-65 218 103 67 71c-23-6-38-20-44-43l32-5c15 47 100 32 89-28v-30C133-14 115 1 83 1 29 1 15-40 15-95c0-56 16-97 71-98 29-1 48 16 59 35 1-10 0-23 2-32h30zM94-22c36 0 50-32 50-73 0-42-14-75-50-75-39 0-46 34-46 75s6 73 46 73" id="t"/><g id="d"><use transform="matrix(0.05,0,0,0.05,0,0)" xlink:href="#s"/><use transform="matrix(0.05,0,0,0.05,12,0)" xlink:href="#k"/><use transform="matrix(0.05,0,0,0.05,22,0)" xlink:href="#t"/><use transform="matrix(0.05,0,0,0.05,32,0)" xlink:href="#i"/><use transform="matrix(0.05,0,0,0.05,35.95,0)" xlink:href="#k"/><use transform="matrix(0.05,0,0,0.05,45.95,0)" xlink:href="#m"/><path d="M-.9 1.25h57.75v1.32H-.9z"/></g></defs></g></svg>